# AST/ASF file generated using VICON BodyLanguage
# -----------------------------------------------
:version 1.10
:name VICON
:units
  mass 1.0
  length 0.45
  angle deg
:documentation
   .ast/.asf automatically generated from VICON data using
   VICON BodyBuilder and BodyLanguage model FoxedUp or BRILLIANT.MOD
:root
   order TX TY TZ RX RY RZ
   axis XYZ
   position 0 0 0  
   orientation 0 0 0 
:bonedata
  begin
     id 1 
     name lhipjoint
     direction 0.635376 -0.686425 0.353719 
     length 2.47244 
     axis 0 0 0  XYZ
  end
  begin
     id 2 
     name lfemur
     direction 0.34202 -0.939693 0  
     length 7.25268  
     axis 0 0 20  XYZ
    dof rx ry rz
    limits (-160.0 20.0)
           (-70.0 70.0)
           (-60.0 70.0)
  end
  begin
     id 3 
     name ltibia
     direction 0.34202 -0.939693 0   
     length 7.6767   
     axis 0 0 20   XYZ
    dof rx
    limits (-10.0 170.0)
  end
  begin
     id 4 
     name lfoot
     direction 0.0803374 -0.220725 0.972022   
     length 2.22945   
     axis -90 7.62852e-016 20   XYZ
    dof rx rz
    limits (-45.0 90.0)
           (-70.0 20.0)
  end
  begin
     id 5 
     name ltoes
     direction 1.53579e-011 -4.21994e-011 1   
     length 1.11848   
     axis -90 7.62852e-016 20   XYZ
    dof rx
    limits (-90.0 20.0)
  end
  begin
     id 6 
     name rhipjoint
     direction -0.664428 -0.664335 0.342336   
     length 2.55466  
     axis 0 0 0  XYZ 
  end
  begin
     id 7 
     name rfemur
     direction -0.34202 -0.939693 0   
     length 6.83172   
     axis 0 0 -20   XYZ
    dof rx ry rz
    limits (-160.0 20.0)
           (-70.0 70.0)
           (-70.0 60.0)
  end
  begin
     id 8 
     name rtibia
     direction -0.34202 -0.939693 0   
     length 7.62692   
     axis 0 0 -20   XYZ
    dof rx
    limits (-10.0 170.0)
 end
 begin
     id 9 
     name rfoot
     direction -0.0949276 -0.260811 0.960711   
     length 2.19684  
     axis -90 -7.62852e-016 -20   XYZ
    dof rx rz
    limits (-45.0 90.0)
           (-20.0 70.0)
  end
  begin
     id 10 
     name rtoes
     direction -1.53543e-011 -4.2183e-011 1   
     length 1.09848   
     axis -90 -7.62852e-016 -20   XYZ
    dof rx
    limits (-90.0 20.0)
  end
  begin
     id 11 
     name lowerback
     direction 0.0118782 0.999815 -0.0151555   
     length 2.15772   
     axis 0 0 0   XYZ
    dof rx ry rz
    limits (-20.0 45.0)
           (-30.0 30.0)
           (-30.0 30.0)
  end
  begin
     id 12 
     name upperback
     direction 0.00130825 0.999065 0.0432113   
     length 2.14863   
     axis 0 0 0   XYZ
    dof rx ry rz
    limits (-20.0 45.0)
           (-30.0 30.0)
           (-30.0 30.0)
  end
  begin
     id 13 
     name thorax
     direction -0.00347005 0.998773 0.0494011   
     length 2.14936   
     axis 0 0 0   XYZ
    dof rx ry rz
    limits (-20.0 45.0)
           (-30.0 30.0)
           (-30.0 30.0)
  end
  begin
     id 14 
     name lowerneck
     direction -0.0262159 0.99424 0.103921   
     length 1.69373   
     axis 0 0 0   XYZ
    dof rx ry rz
    limits (-20.0 45.0)
           (-30.0 30.0)
           (-30.0 30.0)
  end
  begin
     id 15 
     name upperneck
     direction 0.0353511 0.977394 -0.20845   
     length 1.70857   
     axis 0 0 0   XYZ
    dof rx ry rz
    limits (-20.0 45.0)
           (-30.0 30.0)
           (-30.0 30.0)
  end
  begin
     id 16
     name head
     direction 0.0139214 0.996594 -0.0812836  
     length 1.72777  
     axis 0 0 0   XYZ
    dof rx ry rz
    limits (-20.0 45.0)
           (-30.0 30.0)
           (-30.0 30.0)
  end
  begin
     id 17 
     name lclavicle
     direction 0.841247 0.537205 -0.0609508  
     length 3.55371  
     axis 0 0 0   XYZ
    dof ry rz
    limits (-20.0 10.0)
           (0.0 20.0)
  end
  begin
     id 18 
     name lhumerus
     direction 1 -4.48964e-011 1.60116e-018   
     length 4.91377   
     axis -180 -30 -90   XYZ
    dof rx ry rz
    limits (-60.0 90.0)
           (-90.0 90.0)
           (-90.0 90.0)
  end
  begin
     id 19
     name lradius
     direction 1 -4.48989e-011 -8.93847e-027   
     length 3.00291   
     axis -180 -30 -90   XYZ
    dof rx
    limits (-10.0 170.0)
  end
  begin
     id 20
     name lwrist
     direction 1 -4.48932e-011 -7.31504e-027   
     length 1.50145   
     axis 5.74121e-015 90 90   XYZ
    dof ry
    limits (-180.0 0.0)
 end
  begin
     id 21 
     name lhand
     direction 1 -4.48971e-011 -1.46301e-026   
     length 0.450922   
     axis 9.33524e-015 90 90   XYZ
    dof rx rz
    limits (-90.0 90.0)
           (-45.0 45.0)
  end
  begin
     id 22 
     name lfingers
     direction 1 -4.49039e-011 -2.92602e-026   
     length 0.363545   
     axis 1.86705e-014 90 90   XYZ
    dof rx
    limits (0.0 90.0)
  end
  begin
     id 23
     name lthumb
     direction 0.707107 -6.34941e-011 0.707107   
     length 0.52198   
     axis -90 45 2.85299e-015   XYZ
    dof rx rz
    limits (-45.0 45.0)
           (-45.0 45.0)
  end
  begin
     id 24 
     name rclavicle
     direction -0.825079 0.56158 -0.0622297   
     length 3.39909  
     axis 0 0 0   XYZ 
    dof ry rz
    limits (-10.0 20.0)
           (-20.0 0.0)
  end
  begin
     id 25 
     name rhumerus
     direction -1 -4.48965e-011 1.61691e-027  
     length 4.86725   
     axis -180 30 90   XYZ
    dof rx ry rz
    limits (-90.0 60.0)
           (-90.0 90.0)
           (-90.0 90.0)
  end
  begin
     id 26 
     name rradius
     direction -1 -4.48964e-011 -2.25776e-027   
     length 3.17144   
     axis -180 30 90   XYZ
    dof rx
    limits (-10.0 170.0)
  end
  begin
     id 27 
     name rwrist
     direction -1 -4.48961e-011 -7.31504e-027   
     length 1.58572   
     axis 5.74121e-015 -90 -90   XYZ
    dof ry
    limits (-180.0 0.0)
  end
  begin
     id 28
     name rhand
     direction -1 -4.49013e-011 -1.46301e-026   
     length 0.419368   
     axis 9.33524e-015 -90 -90   XYZ
    dof rx rz
    limits (-90.0 90.0)
           (-45.0 45.0)
  end
  begin
     id 29
     name rfingers
     direction -1 -4.489e-011 -2.92602e-026   
     length 0.338105   
     axis 1.86705e-014 -90 -90   XYZ
    dof rx
    limits (0.0 90.0)
  end
  begin
     id 30
     name rthumb
     direction -0.707107 -6.35022e-011 0.707107   
     length 0.485453   
     axis -90 -45 -2.85299e-015   XYZ
    dof rx rz
    limits (-45.0 45.0)
           (-45.0 45.0)
  end
:hierarchy
  begin
    root lhipjoint rhipjoint lowerback
    lhipjoint lfemur
    lfemur ltibia
    ltibia lfoot
    lfoot ltoes
    rhipjoint rfemur
    rfemur rtibia
    rtibia rfoot
    rfoot rtoes
    lowerback upperback
    upperback thorax
    thorax lowerneck lclavicle rclavicle
    lowerneck upperneck
    upperneck head
    lclavicle lhumerus
    lhumerus lradius
    lradius lwrist
    lwrist lhand lthumb
    lhand lfingers
    rclavicle rhumerus
    rhumerus rradius
    rradius rwrist
    rwrist rhand rthumb
    rhand rfingers
  end

#!OML:ASF H:\Swim 2\Project 1\Capture day 1\Session 1\male.ASF
:FULLY-SPECIFIED
:DEGREES
158
root 1.00567 14.7513 11.499 96.4602 -17.5967 2.00083
lowerback -21.8193 6.81666 14.2031
upperback -5.25111 6.87838 -10.9057
thorax 9.34949 3.99916 -17.9921
lowerneck -6.85229 -3.17952 7.08335
upperneck -24.7829 -4.29951 1.99879
head -6.61643 -3.00062 -0.376539
rclavicle -2.70347e-014 1.23246e-014
rhumerus 3.62248 16.6044 -62.9962
rradius 65.2804
rwrist -26.0751
rhand -26.546 4.94625
rfingers 7.12502
rthumb 0.0183681 -25.0335
lclavicle -2.70347e-014 1.23246e-014
lhumerus 60.3874 -42.3316 -5.46847
lradius 68.4498
lwrist 57.4116
lhand -41.2479 -21.1437
lfingers 7.12502
lthumb -14.1705 8.353
rfemur -56.2913 -0.249877 23.9736
rtibia 52.0959
rfoot 23.971 4.61785
rtoes 14.777
lfemur -57.3547 4.981 -30.2218
ltibia 54.402
lfoot 21.0996 -1.10022
ltoes 20.9916
159
root 1.04758 14.7487 11.5037 96.1733 -17.5623 2.18501
lowerback -21.6545 6.55422 14.3393
upperback -5.26761 6.47508 -10.6603
thorax 9.05088 3.76153 -17.9427
lowerneck -6.87588 -3.06511 6.12524
upperneck -25.0731 -4.08896 2.19134
head -6.66715 -2.83046 -0.161456
rclavicle -2.54444e-014 4.21423e-014
rhumerus 2.24507 18.4144 -64.3544
rradius 64.4161
rwrist -26.1288
rhand -26.8829 4.4368
rfingers 7.12502
rthumb -0.30698 -25.5427
lclavicle -2.54444e-014 4.21423e-014
lhumerus 59.5984 -44.9432 -7.00541
lradius 68.7553
lwrist 58.3187
lhand -41.5961 -21.5375
lfingers 7.12502
lthumb -14.5061 7.93538
rfemur -56.8804 -0.393077 24.0021
rtibia 53.7919
rfoot 24.2394 4.79172
rtoes 16.8496
lfemur -57.5956 5.46431 -30.4914
ltibia 55.6053
lfoot 21.3386 -0.974582
ltoes 21.3348
160
root 1.08965 14.7477 11.5089 95.9223 -17.5162 2.35131
lowerback -21.505 6.20115 14.5072
upperback -5.28497 5.92338 -10.2794
thorax 8.67877 3.43595 -17.7949
lowerneck -6.91415 -2.8925 4.74889
upperneck -25.3642 -3.76486 2.52761
head -6.70214 -2.57391 0.166629
rclavicle 3.73715e-014 -3.29983e-014
rhumerus 1.05122 20.5041 -65.5213
rradius 63.3712
rwrist -26.3881
rhand -27.1759 4.25366
rfingers 7.12502
rthumb -0.589984 -25.7253
lclavicle 3.73715e-014 -3.29983e-014
lhumerus 58.2111 -47.6992 -7.8951
lradius 68.9055
lwrist 59.4213
lhand -41.9523 -22.0726
lfingers 7.12502
lthumb -14.8492 7.37529
rfemur -57.4941 -0.533684 24.0404
rtibia 55.5043
rfoot 24.4813 4.96494
rtoes 18.8521
lfemur -57.8555 5.98836 -30.7643
ltibia 56.8124
lfoot 21.5677 -0.855134
ltoes 21.6082
161
root 1.13171 14.7487 11.5155 95.6834 -17.4627 2.51765
lowerback -21.3565 5.76728 14.7079
upperback -5.30084 5.24343 -9.7887
thorax 8.2472 3.03632 -17.5714
lowerneck -7.01088 -2.67525 3.03255
upperneck -25.6338 -3.35115 2.99217
head -6.71635 -2.2474 0.591541
rclavicle 3.65764e-014 -8.3092e-014
rhumerus 0.000456314 22.8374 -66.5076
rradius 62.1737
rwrist -26.8766
rhand -27.449 4.39817
rfingers 7.12502
rthumb -0.853725 -25.5799
lclavicle 3.65764e-014 -8.3092e-014
lhumerus 56.2183 -50.6014 -8.10258
lradius 68.9024
lwrist 60.6384
lhand -42.3998 -22.7831
lfingers 7.12502
lthumb -15.2803 6.63249
rfemur -58.1001 -0.693629 24.0852
rtibia 57.2123
rfoot 24.6883 5.11005
rtoes 20.5456
lfemur -58.099 6.53163 -31.0387
ltibia 57.996
lfoot 21.8108 -0.769002
ltoes 21.7455
162
root 1.17354 14.7519 11.524 95.4402 -17.4127 2.6981
lowerback -21.1883 5.30486 14.9124
upperback -5.32203 4.52741 -9.27153
thorax 7.79117 2.61568 -17.3226
lowerneck -7.17136 -2.45709 1.22239
upperneck -25.8868 -2.92107 3.51837
head -6.72356 -1.90502 1.05448
rclavicle -7.15625e-015 -2.56432e-014
rhumerus -1.04831 25.1965 -67.4067
rradius 60.8468
rwrist -27.5646
rhand -27.6908 4.97352
rfingers 7.12502
rthumb -1.08729 -25.0035
lclavicle -7.15625e-015 -2.56432e-014
lhumerus 53.8617 -53.6034 -7.80902
lradius 68.7609
lwrist 61.9364
lhand -42.9054 -23.6598
lfingers 7.12502
lthumb -15.7673 5.718
rfemur -58.6754 -0.88968 24.1271
rtibia 58.8969
rfoot 24.8453 5.20899
rtoes 21.9566
lfemur -58.3025 7.07556 -31.3202
ltibia 59.1302
lfoot 22.0849 -0.757097
ltoes 21.6522
163
root 1.21521 14.757 11.5342 95.1987 -17.373 2.89572
lowerback -21.0148 4.89602 15.0976
upperback -5.35693 3.90287 -8.83627
thorax 7.37282 2.24702 -17.1224
lowerneck -7.35043 -2.28276 -0.345879
upperneck -26.1444 -2.56083 3.98826
head -6.74634 -1.61327 1.46409
rclavicle -4.53229e-014 2.36554e-014
rhumerus -2.27329 27.2925 -68.3645
rradius 59.4573
rwrist -28.3339
rhand -27.9294 5.68484
rfingers 7.12502
rthumb -1.3177 -24.2908
lclavicle -4.53229e-014 2.36554e-014
lhumerus 51.5951 -56.6453 -7.42536
lradius 68.502
lwrist 63.2505
lhand -43.483 -24.6287
lfingers 7.12502
lthumb -16.3235 4.70434
rfemur -59.2191 -1.11585 24.1556
rtibia 60.5474
rfoot 24.9176 5.22343
rtoes 23.0438
lfemur -58.4694 7.61343 -31.6165
ltibia 60.1999
lfoot 22.3822 -0.874119
ltoes 21.201
164
root 1.25701 14.7638 11.5463 94.9509 -17.3417 3.12086
lowerback -20.8353 4.58467 15.2567
upperback -5.40696 3.43638 -8.54356
thorax 7.019 1.96761 -17.0215
lowerneck -7.49243 -2.17206 -1.47206
upperneck -26.4192 -2.31765 4.32438
head -6.79621 -1.4103 1.7619
rclavicle 3.02153e-014 3.74709e-014
rhumerus -3.77739 28.9386 -69.4828
rradius 58.0468
rwrist -29.0918
rhand -28.1204 6.30675
rfingers 7.12502
rthumb -1.50224 -23.6677
lclavicle 3.02153e-014 3.74709e-014
lhumerus 49.7736 -59.6872 -7.31072
lradius 68.1309
lwrist 64.5747
lhand -44.0031 -25.6317
lfingers 7.12502
lthumb -16.8241 3.6594
rfemur -59.715 -1.37588 24.1709
rtibia 62.1517
rfoot 24.8625 5.15664
rtoes 23.7732
lfemur -58.592 8.13162 -31.924
ltibia 61.1967
lfoot 22.6801 -1.18548
ltoes 20.2589
165
root 1.29957 14.7719 11.5596 94.6944 -17.3211 3.37478
lowerback -20.6522 4.36982 15.391
upperback -5.47002 3.12377 -8.39008
thorax 6.72623 1.77435 -17.0217
lowerneck -7.55732 -2.11467 -2.16843
upperneck -26.7153 -2.18204 4.51975
head -6.87545 -1.29104 1.94627
rclavicle -1.07344e-014 2.32578e-014
rhumerus -5.55985 30.1171 -70.7799
rradius 56.6362
rwrist -29.762
rhand -28.1972 6.60871
rfingers 7.12502
rthumb -1.57636 -23.3652
lclavicle -1.07344e-014 2.32578e-014
lhumerus 48.5217 -62.7121 -7.62782
lradius 67.6556
lwrist 65.8848
lhand -44.4229 -26.5384
lfingers 7.12502
lthumb -17.2283 2.71791
rfemur -60.1551 -1.64778 24.1582
rtibia 63.7041
rfoot 24.6469 4.98499
rtoes 24.2335
lfemur -58.6704 8.62038 -32.2435
ltibia 62.1224
lfoot 22.9438 -1.71118
ltoes 18.7981
166
root 1.34341 14.7809 11.5739 94.4443 -17.2951 3.64508
lowerback -20.4787 4.28287 15.5132
upperback -5.54725 3.00446 -8.4003
thorax 6.51563 1.68978 -17.1507
lowerneck -7.54568 -2.11247 -2.31755
upperneck -27.0117 -2.17568 4.50595
head -6.97574 -1.27355 1.97355
rclavicle 1.98785e-015 -7.95139e-015
rhumerus -7.63681 30.7086 -72.2787
rradius 55.2366
rwrist -30.3341
rhand -28.1036 6.54187
rfingers 7.12502
rthumb -1.48595 -23.4327
lclavicle 1.98785e-015 -7.95139e-015
lhumerus 48.2747 -65.6967 -8.8425
lradius 67.0832
lwrist 67.141
lhand -44.7447 -27.289
lfingers 7.12502
lthumb -17.538 1.93995
rfemur -60.5396 -1.92038 24.1345
rtibia 65.1923
rfoot 24.2656 4.72306
rtoes 24.4897
lfemur -58.719 9.08305 -32.5587
ltibia 62.9802
lfoot 23.1248 -2.41722
ltoes 16.9194
167
root 1.38888 14.791 11.5893 94.2041 -17.2601 3.92513
lowerback -20.3158 4.19546 15.6598
upperback -5.62181 2.87737 -8.40184
thorax 6.30924 1.60121 -17.2851
lowerneck -7.59889 -2.10267 -2.46026
upperneck -27.2303 -2.16304 4.47296
head -7.04036 -1.25079 1.99073
rclavicle -6.36111e-015 6.47044e-014
rhumerus -9.71115 31.2251 -73.7141
rradius 53.8668
rwrist -30.9191
rhand -27.7784 6.04281
rfingers 7.12502
rthumb -1.17193 -23.9337
lclavicle -6.36111e-015 6.47044e-014
lhumerus 47.9895 -68.6789 -9.94841
lradius 66.3668
lwrist 68.2629
lhand -44.9691 -27.8575
lfingers 7.12502
lthumb -17.754 1.35207
rfemur -60.8685 -2.18343 24.1002
rtibia 66.6096
rfoot 23.7364 4.35848
rtoes 24.4739
lfemur -58.7403 9.51862 -32.8645
ltibia 63.7742
lfoot 23.2063 -3.2538
ltoes 14.7388
168
root 1.43617 14.8022 11.6057 93.9892 -17.2155 4.1943
lowerback -20.1675 4.11822 15.8339
upperback -5.69958 2.75611 -8.39536
thorax 6.10804 1.51518 -17.4228
lowerneck -7.69091 -2.08908 -2.60296
upperneck -27.3879 -2.1476 4.42885
head -7.07859 -1.22494 2.00231
rclavicle 8.34896e-015 -5.11871e-014
rhumerus -11.7852 31.6565 -75.0686
rradius 52.5078
rwrist -31.5612
rhand -27.2536 5.53588
rfingers 7.12502
rthumb -0.665041 -24.4428
lclavicle 8.34896e-015 -5.11871e-014
lhumerus 47.7223 -71.6493 -11.002
lradius 65.5101
lwrist 69.2744
lhand -45.0857 -28.2326
lfingers 7.12502
lthumb -17.8661 0.966711
rfemur -61.1498 -2.4304 24.0596
rtibia 67.9464
rfoot 23.1138 4.01873
rtoes 24.6307
lfemur -58.741 9.93358 -33.1574
ltibia 64.5047
lfoot 23.2018 -4.12045
ltoes 12.4824
169
root 1.48529 14.8145 11.6235 93.8029 -17.1687 4.45161
lowerback -20.0404 4.05457 16.0288
upperback -5.78122 2.64634 -8.38656
thorax 5.91721 1.43501 -17.5651
lowerneck -7.81123 -2.07052 -2.73371
upperneck -27.4912 -2.12953 4.36431
head -7.0946 -1.19678 2.00344
rclavicle -1.98785e-015 -1.59028e-015
rhumerus -13.8475 31.9933 -76.3257
rradius 51.1668
rwrist -32.3301
rhand -26.5719 5.03172
rfingers 7.12502
rthumb -0.0066103 -24.948
lclavicle -1.98785e-015 -1.59028e-015
lhumerus 47.5539 -74.6035 -12.0893
lradius 64.53
lwrist 70.182
lhand -45.1769 -28.4648
lfingers 7.12502
lthumb -17.9539 0.726484
rfemur -61.3841 -2.65681 24.0011
rtibia 69.1964
rfoot 22.4686 3.6742
rtoes 24.8993
lfemur -58.7178 10.316 -33.4386
ltibia 65.1719
lfoot 23.154 -4.92825
ltoes 10.3708
170
root 1.53655 14.8278 11.6423 93.6247 -17.1307 4.71888
lowerback -19.9211 3.99408 16.2318
upperback -5.86396 2.53881 -8.3796
thorax 5.72954 1.35552 -17.7131
lowerneck -7.93174 -2.04967 -2.8625
upperneck -27.5598 -2.10956 4.29368
head -7.09917 -1.16717 2.00139
rclavicle -1.11319e-014 -2.40529e-014
rhumerus -15.8993 32.2376 -77.4839
rradius 49.8629
rwrist -33.2184
rhand -25.8505 4.55598
rfingers 7.12502
rthumb 0.690127 -25.4226
lclavicle -1.11319e-014 -2.40529e-014
lhumerus 47.4511 -77.5292 -13.1701
lradius 63.4257
lwrist 71.004
lhand -45.2139 -28.5408
lfingers 7.12502
lthumb -17.9894 0.647245
rfemur -61.5553 -2.87986 23.9064
rtibia 70.3548
rfoot 21.8494 3.36185
rtoes 25.3979
lfemur -58.6478 10.6344 -33.7105
ltibia 65.7753
lfoot 23.1161 -5.62856
ltoes 8.5303
171
root 1.5897 14.8418 11.6617 93.4605 -17.1055 4.99804
lowerback -19.8239 3.93767 16.4365
upperback -5.94746 2.43407 -8.37928
thorax 5.55297 1.27771 -17.8682
lowerneck -8.02976 -2.02697 -2.98793
upperneck -27.6121 -2.08722 4.2233
head -7.10203 -1.13677 1.99872
rclavicle -1.55052e-014 5.55603e-014
rhumerus -17.9215 32.3691 -78.536
rradius 48.5971
rwrist -34.2059
rhand -25.1592 4.12299
rfingers 7.12502
rthumb 1.35782 -25.8524
lclavicle -1.55052e-014 5.55603e-014
lhumerus 47.3263 -80.4004 -14.1617
lradius 62.2093
lwrist 71.7827
lhand -45.1765 -28.4672
lfingers 7.12502
lthumb -17.9535 0.724088
rfemur -61.6679 -3.09302 23.7692
rtibia 71.4139
rfoot 21.2992 3.08084
rtoes 26.0625
lfemur -58.536 10.8838 -33.9743
ltibia 66.3191
lfoot 23.1268 -6.20523
ltoes 7.00205
